<mxfile host="app.diagrams.net" agent="Mozilla/5.0 (Windows NT 10.0; Win64; x64) AppleWebKit/537.36 (KHTML, like Gecko) Chrome/137.0.0.0 Safari/537.36" version="27.1.5">
  <diagram name="Page-1" id="EexjktQF8SH3S8s_f83C">
    <mxGraphModel dx="992" dy="535" grid="1" gridSize="10" guides="1" tooltips="1" connect="1" arrows="1" fold="1" page="1" pageScale="1" pageWidth="850" pageHeight="1100" background="light-dark(#FFFFFF,#121212)" math="0" shadow="0">
      <root>
        <mxCell id="0" />
        <mxCell id="1" parent="0" />
        <mxCell id="Wh_HlaEyEp3CIP046GLt-1" value="User" style="shape=table;startSize=30;container=1;collapsible=1;childLayout=tableLayout;fixedRows=1;rowLines=0;fontStyle=1;align=center;resizeLast=1;html=1;fillColor=#F5AB50;strokeColor=#909090;labelBackgroundColor=none;fontColor=#1A1A1A;" parent="1" vertex="1">
          <mxGeometry x="330" y="270" width="190" height="270" as="geometry" />
        </mxCell>
        <mxCell id="Wh_HlaEyEp3CIP046GLt-2" value="" style="shape=tableRow;horizontal=0;startSize=0;swimlaneHead=0;swimlaneBody=0;fillColor=none;collapsible=0;dropTarget=0;points=[[0,0.5],[1,0.5]];portConstraint=eastwest;top=0;left=0;right=0;bottom=1;labelBackgroundColor=none;strokeColor=#909090;fontColor=#1A1A1A;" parent="Wh_HlaEyEp3CIP046GLt-1" vertex="1">
          <mxGeometry y="30" width="190" height="30" as="geometry" />
        </mxCell>
        <mxCell id="Wh_HlaEyEp3CIP046GLt-3" value="PK" style="shape=partialRectangle;connectable=0;fillColor=none;top=0;left=0;bottom=0;right=0;fontStyle=1;overflow=hidden;whiteSpace=wrap;html=1;labelBackgroundColor=none;strokeColor=#909090;fontColor=#1A1A1A;" parent="Wh_HlaEyEp3CIP046GLt-2" vertex="1">
          <mxGeometry width="30" height="30" as="geometry">
            <mxRectangle width="30" height="30" as="alternateBounds" />
          </mxGeometry>
        </mxCell>
        <mxCell id="Wh_HlaEyEp3CIP046GLt-4" value="UserID" style="shape=partialRectangle;connectable=0;fillColor=none;top=0;left=0;bottom=0;right=0;align=left;spacingLeft=6;fontStyle=5;overflow=hidden;whiteSpace=wrap;html=1;labelBackgroundColor=none;strokeColor=#909090;fontColor=#1A1A1A;" parent="Wh_HlaEyEp3CIP046GLt-2" vertex="1">
          <mxGeometry x="30" width="160" height="30" as="geometry">
            <mxRectangle width="160" height="30" as="alternateBounds" />
          </mxGeometry>
        </mxCell>
        <mxCell id="Wh_HlaEyEp3CIP046GLt-5" value="" style="shape=tableRow;horizontal=0;startSize=0;swimlaneHead=0;swimlaneBody=0;fillColor=none;collapsible=0;dropTarget=0;points=[[0,0.5],[1,0.5]];portConstraint=eastwest;top=0;left=0;right=0;bottom=0;labelBackgroundColor=none;strokeColor=#909090;fontColor=#1A1A1A;" parent="Wh_HlaEyEp3CIP046GLt-1" vertex="1">
          <mxGeometry y="60" width="190" height="30" as="geometry" />
        </mxCell>
        <mxCell id="Wh_HlaEyEp3CIP046GLt-6" value="" style="shape=partialRectangle;connectable=0;fillColor=none;top=0;left=0;bottom=0;right=0;editable=1;overflow=hidden;whiteSpace=wrap;html=1;labelBackgroundColor=none;strokeColor=#909090;fontColor=#1A1A1A;" parent="Wh_HlaEyEp3CIP046GLt-5" vertex="1">
          <mxGeometry width="30" height="30" as="geometry">
            <mxRectangle width="30" height="30" as="alternateBounds" />
          </mxGeometry>
        </mxCell>
        <mxCell id="Wh_HlaEyEp3CIP046GLt-7" value="UserName" style="shape=partialRectangle;connectable=0;fillColor=none;top=0;left=0;bottom=0;right=0;align=left;spacingLeft=6;overflow=hidden;whiteSpace=wrap;html=1;fontStyle=1;labelBackgroundColor=none;strokeColor=#909090;fontColor=#1A1A1A;" parent="Wh_HlaEyEp3CIP046GLt-5" vertex="1">
          <mxGeometry x="30" width="160" height="30" as="geometry">
            <mxRectangle width="160" height="30" as="alternateBounds" />
          </mxGeometry>
        </mxCell>
        <mxCell id="Wh_HlaEyEp3CIP046GLt-8" value="" style="shape=tableRow;horizontal=0;startSize=0;swimlaneHead=0;swimlaneBody=0;fillColor=none;collapsible=0;dropTarget=0;points=[[0,0.5],[1,0.5]];portConstraint=eastwest;top=0;left=0;right=0;bottom=0;labelBackgroundColor=none;strokeColor=#909090;fontColor=#1A1A1A;" parent="Wh_HlaEyEp3CIP046GLt-1" vertex="1">
          <mxGeometry y="90" width="190" height="30" as="geometry" />
        </mxCell>
        <mxCell id="Wh_HlaEyEp3CIP046GLt-9" value="" style="shape=partialRectangle;connectable=0;fillColor=none;top=0;left=0;bottom=0;right=0;editable=1;overflow=hidden;whiteSpace=wrap;html=1;labelBackgroundColor=none;strokeColor=#909090;fontColor=#1A1A1A;" parent="Wh_HlaEyEp3CIP046GLt-8" vertex="1">
          <mxGeometry width="30" height="30" as="geometry">
            <mxRectangle width="30" height="30" as="alternateBounds" />
          </mxGeometry>
        </mxCell>
        <mxCell id="Wh_HlaEyEp3CIP046GLt-10" value="Password" style="shape=partialRectangle;connectable=0;fillColor=none;top=0;left=0;bottom=0;right=0;align=left;spacingLeft=6;overflow=hidden;whiteSpace=wrap;html=1;fontStyle=1;labelBackgroundColor=none;strokeColor=#909090;fontColor=#1A1A1A;" parent="Wh_HlaEyEp3CIP046GLt-8" vertex="1">
          <mxGeometry x="30" width="160" height="30" as="geometry">
            <mxRectangle width="160" height="30" as="alternateBounds" />
          </mxGeometry>
        </mxCell>
        <mxCell id="Wh_HlaEyEp3CIP046GLt-11" value="" style="shape=tableRow;horizontal=0;startSize=0;swimlaneHead=0;swimlaneBody=0;fillColor=none;collapsible=0;dropTarget=0;points=[[0,0.5],[1,0.5]];portConstraint=eastwest;top=0;left=0;right=0;bottom=0;labelBackgroundColor=none;strokeColor=#909090;fontColor=#1A1A1A;" parent="Wh_HlaEyEp3CIP046GLt-1" vertex="1">
          <mxGeometry y="120" width="190" height="30" as="geometry" />
        </mxCell>
        <mxCell id="Wh_HlaEyEp3CIP046GLt-12" value="" style="shape=partialRectangle;connectable=0;fillColor=none;top=0;left=0;bottom=0;right=0;editable=1;overflow=hidden;whiteSpace=wrap;html=1;labelBackgroundColor=none;strokeColor=#909090;fontColor=#1A1A1A;" parent="Wh_HlaEyEp3CIP046GLt-11" vertex="1">
          <mxGeometry width="30" height="30" as="geometry">
            <mxRectangle width="30" height="30" as="alternateBounds" />
          </mxGeometry>
        </mxCell>
        <mxCell id="Wh_HlaEyEp3CIP046GLt-13" value="Email" style="shape=partialRectangle;connectable=0;fillColor=none;top=0;left=0;bottom=0;right=0;align=left;spacingLeft=6;overflow=hidden;whiteSpace=wrap;html=1;fontStyle=1;labelBackgroundColor=none;strokeColor=#909090;fontColor=#1A1A1A;" parent="Wh_HlaEyEp3CIP046GLt-11" vertex="1">
          <mxGeometry x="30" width="160" height="30" as="geometry">
            <mxRectangle width="160" height="30" as="alternateBounds" />
          </mxGeometry>
        </mxCell>
        <mxCell id="Wh_HlaEyEp3CIP046GLt-92" value="" style="shape=tableRow;horizontal=0;startSize=0;swimlaneHead=0;swimlaneBody=0;fillColor=none;collapsible=0;dropTarget=0;points=[[0,0.5],[1,0.5]];portConstraint=eastwest;top=0;left=0;right=0;bottom=0;labelBackgroundColor=none;strokeColor=#909090;fontColor=#1A1A1A;" parent="Wh_HlaEyEp3CIP046GLt-1" vertex="1">
          <mxGeometry y="150" width="190" height="30" as="geometry" />
        </mxCell>
        <mxCell id="Wh_HlaEyEp3CIP046GLt-93" value="" style="shape=partialRectangle;connectable=0;fillColor=none;top=0;left=0;bottom=0;right=0;editable=1;overflow=hidden;whiteSpace=wrap;html=1;labelBackgroundColor=none;strokeColor=#909090;fontColor=#1A1A1A;" parent="Wh_HlaEyEp3CIP046GLt-92" vertex="1">
          <mxGeometry width="30" height="30" as="geometry">
            <mxRectangle width="30" height="30" as="alternateBounds" />
          </mxGeometry>
        </mxCell>
        <mxCell id="Wh_HlaEyEp3CIP046GLt-94" value="Phone" style="shape=partialRectangle;connectable=0;fillColor=none;top=0;left=0;bottom=0;right=0;align=left;spacingLeft=6;overflow=hidden;whiteSpace=wrap;html=1;fontStyle=1;labelBackgroundColor=none;strokeColor=#909090;fontColor=#1A1A1A;" parent="Wh_HlaEyEp3CIP046GLt-92" vertex="1">
          <mxGeometry x="30" width="160" height="30" as="geometry">
            <mxRectangle width="160" height="30" as="alternateBounds" />
          </mxGeometry>
        </mxCell>
        <mxCell id="Wh_HlaEyEp3CIP046GLt-95" value="" style="shape=tableRow;horizontal=0;startSize=0;swimlaneHead=0;swimlaneBody=0;fillColor=none;collapsible=0;dropTarget=0;points=[[0,0.5],[1,0.5]];portConstraint=eastwest;top=0;left=0;right=0;bottom=0;labelBackgroundColor=none;strokeColor=#909090;fontColor=#1A1A1A;" parent="Wh_HlaEyEp3CIP046GLt-1" vertex="1">
          <mxGeometry y="180" width="190" height="30" as="geometry" />
        </mxCell>
        <mxCell id="Wh_HlaEyEp3CIP046GLt-96" value="" style="shape=partialRectangle;connectable=0;fillColor=none;top=0;left=0;bottom=0;right=0;editable=1;overflow=hidden;whiteSpace=wrap;html=1;labelBackgroundColor=none;strokeColor=#909090;fontColor=#1A1A1A;" parent="Wh_HlaEyEp3CIP046GLt-95" vertex="1">
          <mxGeometry width="30" height="30" as="geometry">
            <mxRectangle width="30" height="30" as="alternateBounds" />
          </mxGeometry>
        </mxCell>
        <mxCell id="Wh_HlaEyEp3CIP046GLt-97" value="Full Name" style="shape=partialRectangle;connectable=0;fillColor=none;top=0;left=0;bottom=0;right=0;align=left;spacingLeft=6;overflow=hidden;whiteSpace=wrap;html=1;fontStyle=1;labelBackgroundColor=none;strokeColor=#909090;fontColor=#1A1A1A;" parent="Wh_HlaEyEp3CIP046GLt-95" vertex="1">
          <mxGeometry x="30" width="160" height="30" as="geometry">
            <mxRectangle width="160" height="30" as="alternateBounds" />
          </mxGeometry>
        </mxCell>
        <mxCell id="Wh_HlaEyEp3CIP046GLt-98" value="" style="shape=tableRow;horizontal=0;startSize=0;swimlaneHead=0;swimlaneBody=0;fillColor=none;collapsible=0;dropTarget=0;points=[[0,0.5],[1,0.5]];portConstraint=eastwest;top=0;left=0;right=0;bottom=0;labelBackgroundColor=none;strokeColor=#909090;fontColor=#1A1A1A;" parent="Wh_HlaEyEp3CIP046GLt-1" vertex="1">
          <mxGeometry y="210" width="190" height="30" as="geometry" />
        </mxCell>
        <mxCell id="Wh_HlaEyEp3CIP046GLt-99" value="" style="shape=partialRectangle;connectable=0;fillColor=none;top=0;left=0;bottom=0;right=0;editable=1;overflow=hidden;whiteSpace=wrap;html=1;labelBackgroundColor=none;strokeColor=#909090;fontColor=#1A1A1A;" parent="Wh_HlaEyEp3CIP046GLt-98" vertex="1">
          <mxGeometry width="30" height="30" as="geometry">
            <mxRectangle width="30" height="30" as="alternateBounds" />
          </mxGeometry>
        </mxCell>
        <mxCell id="Wh_HlaEyEp3CIP046GLt-100" value="Address" style="shape=partialRectangle;connectable=0;fillColor=none;top=0;left=0;bottom=0;right=0;align=left;spacingLeft=6;overflow=hidden;whiteSpace=wrap;html=1;fontStyle=1;labelBackgroundColor=none;strokeColor=#909090;fontColor=#1A1A1A;" parent="Wh_HlaEyEp3CIP046GLt-98" vertex="1">
          <mxGeometry x="30" width="160" height="30" as="geometry">
            <mxRectangle width="160" height="30" as="alternateBounds" />
          </mxGeometry>
        </mxCell>
        <mxCell id="gWuvPEMKt8DnDTGnqQOU-48" value="" style="shape=tableRow;horizontal=0;startSize=0;swimlaneHead=0;swimlaneBody=0;fillColor=none;collapsible=0;dropTarget=0;points=[[0,0.5],[1,0.5]];portConstraint=eastwest;top=0;left=0;right=0;bottom=0;labelBackgroundColor=none;strokeColor=#909090;fontColor=#1A1A1A;" vertex="1" parent="Wh_HlaEyEp3CIP046GLt-1">
          <mxGeometry y="240" width="190" height="30" as="geometry" />
        </mxCell>
        <mxCell id="gWuvPEMKt8DnDTGnqQOU-49" value="" style="shape=partialRectangle;connectable=0;fillColor=none;top=0;left=0;bottom=0;right=0;editable=1;overflow=hidden;whiteSpace=wrap;html=1;labelBackgroundColor=none;strokeColor=#909090;fontColor=#1A1A1A;" vertex="1" parent="gWuvPEMKt8DnDTGnqQOU-48">
          <mxGeometry width="30" height="30" as="geometry">
            <mxRectangle width="30" height="30" as="alternateBounds" />
          </mxGeometry>
        </mxCell>
        <mxCell id="gWuvPEMKt8DnDTGnqQOU-50" value="Created At/ OpenDate" style="shape=partialRectangle;connectable=0;fillColor=none;top=0;left=0;bottom=0;right=0;align=left;spacingLeft=6;overflow=hidden;whiteSpace=wrap;html=1;fontStyle=1;labelBackgroundColor=none;strokeColor=#909090;fontColor=#1A1A1A;" vertex="1" parent="gWuvPEMKt8DnDTGnqQOU-48">
          <mxGeometry x="30" width="160" height="30" as="geometry">
            <mxRectangle width="160" height="30" as="alternateBounds" />
          </mxGeometry>
        </mxCell>
        <mxCell id="Wh_HlaEyEp3CIP046GLt-14" value="Account" style="shape=table;startSize=30;container=1;collapsible=1;childLayout=tableLayout;fixedRows=1;rowLines=0;fontStyle=1;align=center;resizeLast=1;html=1;whiteSpace=wrap;fillColor=#F5AB50;strokeColor=#909090;labelBackgroundColor=none;fontColor=#1A1A1A;" parent="1" vertex="1">
          <mxGeometry x="340" y="602" width="180" height="180" as="geometry" />
        </mxCell>
        <mxCell id="Wh_HlaEyEp3CIP046GLt-15" value="" style="shape=tableRow;horizontal=0;startSize=0;swimlaneHead=0;swimlaneBody=0;fillColor=none;collapsible=0;dropTarget=0;points=[[0,0.5],[1,0.5]];portConstraint=eastwest;top=0;left=0;right=0;bottom=0;html=1;labelBackgroundColor=none;strokeColor=#909090;fontColor=#1A1A1A;" parent="Wh_HlaEyEp3CIP046GLt-14" vertex="1">
          <mxGeometry y="30" width="180" height="30" as="geometry" />
        </mxCell>
        <mxCell id="Wh_HlaEyEp3CIP046GLt-16" value="PK" style="shape=partialRectangle;connectable=0;fillColor=none;top=0;left=0;bottom=0;right=0;fontStyle=1;overflow=hidden;html=1;whiteSpace=wrap;labelBackgroundColor=none;strokeColor=#909090;fontColor=#1A1A1A;" parent="Wh_HlaEyEp3CIP046GLt-15" vertex="1">
          <mxGeometry width="60" height="30" as="geometry">
            <mxRectangle width="60" height="30" as="alternateBounds" />
          </mxGeometry>
        </mxCell>
        <mxCell id="Wh_HlaEyEp3CIP046GLt-17" value="AccountNo" style="shape=partialRectangle;connectable=0;fillColor=none;top=0;left=0;bottom=0;right=0;align=left;spacingLeft=6;fontStyle=5;overflow=hidden;html=1;whiteSpace=wrap;labelBackgroundColor=none;strokeColor=#909090;fontColor=#1A1A1A;" parent="Wh_HlaEyEp3CIP046GLt-15" vertex="1">
          <mxGeometry x="60" width="120" height="30" as="geometry">
            <mxRectangle width="120" height="30" as="alternateBounds" />
          </mxGeometry>
        </mxCell>
        <mxCell id="Wh_HlaEyEp3CIP046GLt-18" value="" style="shape=tableRow;horizontal=0;startSize=0;swimlaneHead=0;swimlaneBody=0;fillColor=none;collapsible=0;dropTarget=0;points=[[0,0.5],[1,0.5]];portConstraint=eastwest;top=0;left=0;right=0;bottom=1;html=1;labelBackgroundColor=none;strokeColor=#909090;fontColor=#1A1A1A;" parent="Wh_HlaEyEp3CIP046GLt-14" vertex="1">
          <mxGeometry y="60" width="180" height="30" as="geometry" />
        </mxCell>
        <mxCell id="Wh_HlaEyEp3CIP046GLt-19" value="FK" style="shape=partialRectangle;connectable=0;fillColor=none;top=0;left=0;bottom=0;right=0;fontStyle=1;overflow=hidden;html=1;whiteSpace=wrap;labelBackgroundColor=none;strokeColor=#909090;fontColor=#1A1A1A;" parent="Wh_HlaEyEp3CIP046GLt-18" vertex="1">
          <mxGeometry width="60" height="30" as="geometry">
            <mxRectangle width="60" height="30" as="alternateBounds" />
          </mxGeometry>
        </mxCell>
        <mxCell id="Wh_HlaEyEp3CIP046GLt-20" value="UserID" style="shape=partialRectangle;connectable=0;fillColor=none;top=0;left=0;bottom=0;right=0;align=left;spacingLeft=6;fontStyle=5;overflow=hidden;html=1;whiteSpace=wrap;labelBackgroundColor=none;strokeColor=#909090;fontColor=#1A1A1A;" parent="Wh_HlaEyEp3CIP046GLt-18" vertex="1">
          <mxGeometry x="60" width="120" height="30" as="geometry">
            <mxRectangle width="120" height="30" as="alternateBounds" />
          </mxGeometry>
        </mxCell>
        <mxCell id="Wh_HlaEyEp3CIP046GLt-21" value="" style="shape=tableRow;horizontal=0;startSize=0;swimlaneHead=0;swimlaneBody=0;fillColor=none;collapsible=0;dropTarget=0;points=[[0,0.5],[1,0.5]];portConstraint=eastwest;top=0;left=0;right=0;bottom=0;html=1;labelBackgroundColor=none;strokeColor=#909090;fontColor=#1A1A1A;" parent="Wh_HlaEyEp3CIP046GLt-14" vertex="1">
          <mxGeometry y="90" width="180" height="30" as="geometry" />
        </mxCell>
        <mxCell id="Wh_HlaEyEp3CIP046GLt-22" value="" style="shape=partialRectangle;connectable=0;fillColor=none;top=0;left=0;bottom=0;right=0;editable=1;overflow=hidden;html=1;whiteSpace=wrap;labelBackgroundColor=none;strokeColor=#909090;fontColor=#1A1A1A;" parent="Wh_HlaEyEp3CIP046GLt-21" vertex="1">
          <mxGeometry width="60" height="30" as="geometry">
            <mxRectangle width="60" height="30" as="alternateBounds" />
          </mxGeometry>
        </mxCell>
        <mxCell id="Wh_HlaEyEp3CIP046GLt-23" value="AccountType&amp;nbsp;" style="shape=partialRectangle;connectable=0;fillColor=none;top=0;left=0;bottom=0;right=0;align=left;spacingLeft=6;overflow=hidden;html=1;whiteSpace=wrap;fontStyle=1;labelBackgroundColor=none;strokeColor=#909090;fontColor=#1A1A1A;" parent="Wh_HlaEyEp3CIP046GLt-21" vertex="1">
          <mxGeometry x="60" width="120" height="30" as="geometry">
            <mxRectangle width="120" height="30" as="alternateBounds" />
          </mxGeometry>
        </mxCell>
        <mxCell id="Wh_HlaEyEp3CIP046GLt-24" value="" style="shape=tableRow;horizontal=0;startSize=0;swimlaneHead=0;swimlaneBody=0;fillColor=none;collapsible=0;dropTarget=0;points=[[0,0.5],[1,0.5]];portConstraint=eastwest;top=0;left=0;right=0;bottom=0;html=1;labelBackgroundColor=none;strokeColor=#909090;fontColor=#1A1A1A;" parent="Wh_HlaEyEp3CIP046GLt-14" vertex="1">
          <mxGeometry y="120" width="180" height="30" as="geometry" />
        </mxCell>
        <mxCell id="Wh_HlaEyEp3CIP046GLt-25" value="" style="shape=partialRectangle;connectable=0;fillColor=none;top=0;left=0;bottom=0;right=0;editable=1;overflow=hidden;html=1;whiteSpace=wrap;labelBackgroundColor=none;strokeColor=#909090;fontColor=#1A1A1A;" parent="Wh_HlaEyEp3CIP046GLt-24" vertex="1">
          <mxGeometry width="60" height="30" as="geometry">
            <mxRectangle width="60" height="30" as="alternateBounds" />
          </mxGeometry>
        </mxCell>
        <mxCell id="Wh_HlaEyEp3CIP046GLt-26" value="Balance" style="shape=partialRectangle;connectable=0;fillColor=none;top=0;left=0;bottom=0;right=0;align=left;spacingLeft=6;overflow=hidden;html=1;whiteSpace=wrap;fontStyle=1;labelBackgroundColor=none;strokeColor=#909090;fontColor=#1A1A1A;" parent="Wh_HlaEyEp3CIP046GLt-24" vertex="1">
          <mxGeometry x="60" width="120" height="30" as="geometry">
            <mxRectangle width="120" height="30" as="alternateBounds" />
          </mxGeometry>
        </mxCell>
        <mxCell id="Wh_HlaEyEp3CIP046GLt-101" value="" style="shape=tableRow;horizontal=0;startSize=0;swimlaneHead=0;swimlaneBody=0;fillColor=none;collapsible=0;dropTarget=0;points=[[0,0.5],[1,0.5]];portConstraint=eastwest;top=0;left=0;right=0;bottom=0;html=1;labelBackgroundColor=none;strokeColor=#909090;fontColor=#1A1A1A;" parent="Wh_HlaEyEp3CIP046GLt-14" vertex="1">
          <mxGeometry y="150" width="180" height="30" as="geometry" />
        </mxCell>
        <mxCell id="Wh_HlaEyEp3CIP046GLt-102" value="" style="shape=partialRectangle;connectable=0;fillColor=none;top=0;left=0;bottom=0;right=0;editable=1;overflow=hidden;html=1;whiteSpace=wrap;labelBackgroundColor=none;strokeColor=#909090;fontColor=#1A1A1A;" parent="Wh_HlaEyEp3CIP046GLt-101" vertex="1">
          <mxGeometry width="60" height="30" as="geometry">
            <mxRectangle width="60" height="30" as="alternateBounds" />
          </mxGeometry>
        </mxCell>
        <mxCell id="Wh_HlaEyEp3CIP046GLt-103" value="OpenDate&amp;nbsp;" style="shape=partialRectangle;connectable=0;fillColor=none;top=0;left=0;bottom=0;right=0;align=left;spacingLeft=6;overflow=hidden;html=1;whiteSpace=wrap;fontStyle=1;labelBackgroundColor=none;strokeColor=#909090;fontColor=#1A1A1A;" parent="Wh_HlaEyEp3CIP046GLt-101" vertex="1">
          <mxGeometry x="60" width="120" height="30" as="geometry">
            <mxRectangle width="120" height="30" as="alternateBounds" />
          </mxGeometry>
        </mxCell>
        <mxCell id="Wh_HlaEyEp3CIP046GLt-27" value="Feedback" style="shape=table;startSize=30;container=1;collapsible=1;childLayout=tableLayout;fixedRows=1;rowLines=0;fontStyle=1;align=center;resizeLast=1;html=1;whiteSpace=wrap;fillColor=#F5AB50;strokeColor=#909090;labelBackgroundColor=none;fontColor=#1A1A1A;" parent="1" vertex="1">
          <mxGeometry x="690" y="270" width="180" height="210" as="geometry" />
        </mxCell>
        <mxCell id="Wh_HlaEyEp3CIP046GLt-28" value="" style="shape=tableRow;horizontal=0;startSize=0;swimlaneHead=0;swimlaneBody=0;fillColor=none;collapsible=0;dropTarget=0;points=[[0,0.5],[1,0.5]];portConstraint=eastwest;top=0;left=0;right=0;bottom=0;html=1;labelBackgroundColor=none;strokeColor=#909090;fontColor=#1A1A1A;" parent="Wh_HlaEyEp3CIP046GLt-27" vertex="1">
          <mxGeometry y="30" width="180" height="30" as="geometry" />
        </mxCell>
        <mxCell id="Wh_HlaEyEp3CIP046GLt-29" value="PK" style="shape=partialRectangle;connectable=0;fillColor=none;top=0;left=0;bottom=0;right=0;fontStyle=1;overflow=hidden;html=1;whiteSpace=wrap;labelBackgroundColor=none;strokeColor=#909090;fontColor=#1A1A1A;" parent="Wh_HlaEyEp3CIP046GLt-28" vertex="1">
          <mxGeometry width="60" height="30" as="geometry">
            <mxRectangle width="60" height="30" as="alternateBounds" />
          </mxGeometry>
        </mxCell>
        <mxCell id="Wh_HlaEyEp3CIP046GLt-30" value="FeedbackId" style="shape=partialRectangle;connectable=0;fillColor=none;top=0;left=0;bottom=0;right=0;align=left;spacingLeft=6;fontStyle=5;overflow=hidden;html=1;whiteSpace=wrap;labelBackgroundColor=none;strokeColor=#909090;fontColor=#1A1A1A;" parent="Wh_HlaEyEp3CIP046GLt-28" vertex="1">
          <mxGeometry x="60" width="120" height="30" as="geometry">
            <mxRectangle width="120" height="30" as="alternateBounds" />
          </mxGeometry>
        </mxCell>
        <mxCell id="Wh_HlaEyEp3CIP046GLt-31" value="" style="shape=tableRow;horizontal=0;startSize=0;swimlaneHead=0;swimlaneBody=0;fillColor=none;collapsible=0;dropTarget=0;points=[[0,0.5],[1,0.5]];portConstraint=eastwest;top=0;left=0;right=0;bottom=1;html=1;labelBackgroundColor=none;strokeColor=#909090;fontColor=#1A1A1A;" parent="Wh_HlaEyEp3CIP046GLt-27" vertex="1">
          <mxGeometry y="60" width="180" height="30" as="geometry" />
        </mxCell>
        <mxCell id="Wh_HlaEyEp3CIP046GLt-32" value="FK" style="shape=partialRectangle;connectable=0;fillColor=none;top=0;left=0;bottom=0;right=0;fontStyle=1;overflow=hidden;html=1;whiteSpace=wrap;labelBackgroundColor=none;strokeColor=#909090;fontColor=#1A1A1A;" parent="Wh_HlaEyEp3CIP046GLt-31" vertex="1">
          <mxGeometry width="60" height="30" as="geometry">
            <mxRectangle width="60" height="30" as="alternateBounds" />
          </mxGeometry>
        </mxCell>
        <mxCell id="Wh_HlaEyEp3CIP046GLt-33" value="UserId" style="shape=partialRectangle;connectable=0;fillColor=none;top=0;left=0;bottom=0;right=0;align=left;spacingLeft=6;fontStyle=5;overflow=hidden;html=1;whiteSpace=wrap;labelBackgroundColor=none;strokeColor=#909090;fontColor=#1A1A1A;" parent="Wh_HlaEyEp3CIP046GLt-31" vertex="1">
          <mxGeometry x="60" width="120" height="30" as="geometry">
            <mxRectangle width="120" height="30" as="alternateBounds" />
          </mxGeometry>
        </mxCell>
        <mxCell id="Wh_HlaEyEp3CIP046GLt-34" value="" style="shape=tableRow;horizontal=0;startSize=0;swimlaneHead=0;swimlaneBody=0;fillColor=none;collapsible=0;dropTarget=0;points=[[0,0.5],[1,0.5]];portConstraint=eastwest;top=0;left=0;right=0;bottom=0;html=1;labelBackgroundColor=none;strokeColor=#909090;fontColor=#1A1A1A;" parent="Wh_HlaEyEp3CIP046GLt-27" vertex="1">
          <mxGeometry y="90" width="180" height="30" as="geometry" />
        </mxCell>
        <mxCell id="Wh_HlaEyEp3CIP046GLt-35" value="" style="shape=partialRectangle;connectable=0;fillColor=none;top=0;left=0;bottom=0;right=0;editable=1;overflow=hidden;html=1;whiteSpace=wrap;labelBackgroundColor=none;strokeColor=#909090;fontColor=#1A1A1A;" parent="Wh_HlaEyEp3CIP046GLt-34" vertex="1">
          <mxGeometry width="60" height="30" as="geometry">
            <mxRectangle width="60" height="30" as="alternateBounds" />
          </mxGeometry>
        </mxCell>
        <mxCell id="Wh_HlaEyEp3CIP046GLt-36" value="Text Description" style="shape=partialRectangle;connectable=0;fillColor=none;top=0;left=0;bottom=0;right=0;align=left;spacingLeft=6;overflow=hidden;html=1;whiteSpace=wrap;fontStyle=1;labelBackgroundColor=none;strokeColor=#909090;fontColor=#1A1A1A;" parent="Wh_HlaEyEp3CIP046GLt-34" vertex="1">
          <mxGeometry x="60" width="120" height="30" as="geometry">
            <mxRectangle width="120" height="30" as="alternateBounds" />
          </mxGeometry>
        </mxCell>
        <mxCell id="Wh_HlaEyEp3CIP046GLt-37" value="" style="shape=tableRow;horizontal=0;startSize=0;swimlaneHead=0;swimlaneBody=0;fillColor=none;collapsible=0;dropTarget=0;points=[[0,0.5],[1,0.5]];portConstraint=eastwest;top=0;left=0;right=0;bottom=0;html=1;labelBackgroundColor=none;strokeColor=#909090;fontColor=#1A1A1A;" parent="Wh_HlaEyEp3CIP046GLt-27" vertex="1">
          <mxGeometry y="120" width="180" height="30" as="geometry" />
        </mxCell>
        <mxCell id="Wh_HlaEyEp3CIP046GLt-38" value="" style="shape=partialRectangle;connectable=0;fillColor=none;top=0;left=0;bottom=0;right=0;editable=1;overflow=hidden;html=1;whiteSpace=wrap;labelBackgroundColor=none;strokeColor=#909090;fontColor=#1A1A1A;" parent="Wh_HlaEyEp3CIP046GLt-37" vertex="1">
          <mxGeometry width="60" height="30" as="geometry">
            <mxRectangle width="60" height="30" as="alternateBounds" />
          </mxGeometry>
        </mxCell>
        <mxCell id="Wh_HlaEyEp3CIP046GLt-39" value="Submitted At&amp;nbsp;" style="shape=partialRectangle;connectable=0;fillColor=none;top=0;left=0;bottom=0;right=0;align=left;spacingLeft=6;overflow=hidden;html=1;whiteSpace=wrap;fontStyle=1;labelBackgroundColor=none;strokeColor=#909090;fontColor=#1A1A1A;" parent="Wh_HlaEyEp3CIP046GLt-37" vertex="1">
          <mxGeometry x="60" width="120" height="30" as="geometry">
            <mxRectangle width="120" height="30" as="alternateBounds" />
          </mxGeometry>
        </mxCell>
        <mxCell id="gWuvPEMKt8DnDTGnqQOU-64" value="" style="shape=tableRow;horizontal=0;startSize=0;swimlaneHead=0;swimlaneBody=0;fillColor=none;collapsible=0;dropTarget=0;points=[[0,0.5],[1,0.5]];portConstraint=eastwest;top=0;left=0;right=0;bottom=0;html=1;labelBackgroundColor=none;strokeColor=#909090;fontColor=#1A1A1A;" vertex="1" parent="Wh_HlaEyEp3CIP046GLt-27">
          <mxGeometry y="150" width="180" height="30" as="geometry" />
        </mxCell>
        <mxCell id="gWuvPEMKt8DnDTGnqQOU-65" value="" style="shape=partialRectangle;connectable=0;fillColor=none;top=0;left=0;bottom=0;right=0;editable=1;overflow=hidden;html=1;whiteSpace=wrap;labelBackgroundColor=none;strokeColor=#909090;fontColor=#1A1A1A;" vertex="1" parent="gWuvPEMKt8DnDTGnqQOU-64">
          <mxGeometry width="60" height="30" as="geometry">
            <mxRectangle width="60" height="30" as="alternateBounds" />
          </mxGeometry>
        </mxCell>
        <mxCell id="gWuvPEMKt8DnDTGnqQOU-66" value="Category" style="shape=partialRectangle;connectable=0;fillColor=none;top=0;left=0;bottom=0;right=0;align=left;spacingLeft=6;overflow=hidden;html=1;whiteSpace=wrap;fontStyle=1;labelBackgroundColor=none;strokeColor=#909090;fontColor=#1A1A1A;" vertex="1" parent="gWuvPEMKt8DnDTGnqQOU-64">
          <mxGeometry x="60" width="120" height="30" as="geometry">
            <mxRectangle width="120" height="30" as="alternateBounds" />
          </mxGeometry>
        </mxCell>
        <mxCell id="gWuvPEMKt8DnDTGnqQOU-83" value="" style="shape=tableRow;horizontal=0;startSize=0;swimlaneHead=0;swimlaneBody=0;fillColor=none;collapsible=0;dropTarget=0;points=[[0,0.5],[1,0.5]];portConstraint=eastwest;top=0;left=0;right=0;bottom=0;html=1;labelBackgroundColor=none;strokeColor=#909090;fontColor=#1A1A1A;" vertex="1" parent="Wh_HlaEyEp3CIP046GLt-27">
          <mxGeometry y="180" width="180" height="30" as="geometry" />
        </mxCell>
        <mxCell id="gWuvPEMKt8DnDTGnqQOU-84" value="" style="shape=partialRectangle;connectable=0;fillColor=none;top=0;left=0;bottom=0;right=0;editable=1;overflow=hidden;html=1;whiteSpace=wrap;labelBackgroundColor=none;strokeColor=#909090;fontColor=#1A1A1A;" vertex="1" parent="gWuvPEMKt8DnDTGnqQOU-83">
          <mxGeometry width="60" height="30" as="geometry">
            <mxRectangle width="60" height="30" as="alternateBounds" />
          </mxGeometry>
        </mxCell>
        <mxCell id="gWuvPEMKt8DnDTGnqQOU-85" value="Rating" style="shape=partialRectangle;connectable=0;fillColor=none;top=0;left=0;bottom=0;right=0;align=left;spacingLeft=6;overflow=hidden;html=1;whiteSpace=wrap;fontStyle=1;labelBackgroundColor=none;strokeColor=#909090;fontColor=#1A1A1A;" vertex="1" parent="gWuvPEMKt8DnDTGnqQOU-83">
          <mxGeometry x="60" width="120" height="30" as="geometry">
            <mxRectangle width="120" height="30" as="alternateBounds" />
          </mxGeometry>
        </mxCell>
        <mxCell id="Wh_HlaEyEp3CIP046GLt-40" value="Card" style="shape=table;startSize=30;container=1;collapsible=1;childLayout=tableLayout;fixedRows=1;rowLines=0;fontStyle=1;align=center;resizeLast=1;html=1;whiteSpace=wrap;fillColor=#F5AB50;strokeColor=#909090;labelBackgroundColor=none;fontColor=#1A1A1A;" parent="1" vertex="1">
          <mxGeometry y="270" width="180" height="230" as="geometry" />
        </mxCell>
        <mxCell id="Wh_HlaEyEp3CIP046GLt-41" value="" style="shape=tableRow;horizontal=0;startSize=0;swimlaneHead=0;swimlaneBody=0;fillColor=none;collapsible=0;dropTarget=0;points=[[0,0.5],[1,0.5]];portConstraint=eastwest;top=0;left=0;right=0;bottom=0;html=1;labelBackgroundColor=none;strokeColor=#909090;fontColor=#1A1A1A;" parent="Wh_HlaEyEp3CIP046GLt-40" vertex="1">
          <mxGeometry y="30" width="180" height="30" as="geometry" />
        </mxCell>
        <mxCell id="Wh_HlaEyEp3CIP046GLt-42" value="PK" style="shape=partialRectangle;connectable=0;fillColor=none;top=0;left=0;bottom=0;right=0;fontStyle=1;overflow=hidden;html=1;whiteSpace=wrap;labelBackgroundColor=none;strokeColor=#909090;fontColor=#1A1A1A;" parent="Wh_HlaEyEp3CIP046GLt-41" vertex="1">
          <mxGeometry width="60" height="30" as="geometry">
            <mxRectangle width="60" height="30" as="alternateBounds" />
          </mxGeometry>
        </mxCell>
        <mxCell id="Wh_HlaEyEp3CIP046GLt-43" value="Card ID" style="shape=partialRectangle;connectable=0;fillColor=none;top=0;left=0;bottom=0;right=0;align=left;spacingLeft=6;fontStyle=5;overflow=hidden;html=1;whiteSpace=wrap;labelBackgroundColor=none;strokeColor=#909090;fontColor=#1A1A1A;" parent="Wh_HlaEyEp3CIP046GLt-41" vertex="1">
          <mxGeometry x="60" width="120" height="30" as="geometry">
            <mxRectangle width="120" height="30" as="alternateBounds" />
          </mxGeometry>
        </mxCell>
        <mxCell id="Wh_HlaEyEp3CIP046GLt-47" value="" style="shape=tableRow;horizontal=0;startSize=0;swimlaneHead=0;swimlaneBody=0;fillColor=none;collapsible=0;dropTarget=0;points=[[0,0.5],[1,0.5]];portConstraint=eastwest;top=0;left=0;right=0;bottom=0;html=1;fontStyle=1;labelBackgroundColor=none;strokeColor=#909090;fontColor=#1A1A1A;" parent="Wh_HlaEyEp3CIP046GLt-40" vertex="1">
          <mxGeometry y="60" width="180" height="20" as="geometry" />
        </mxCell>
        <mxCell id="Wh_HlaEyEp3CIP046GLt-48" value="FK" style="shape=partialRectangle;connectable=0;fillColor=none;top=0;left=0;bottom=0;right=0;editable=1;overflow=hidden;html=1;whiteSpace=wrap;fontStyle=1;labelBackgroundColor=none;strokeColor=#909090;fontColor=#1A1A1A;" parent="Wh_HlaEyEp3CIP046GLt-47" vertex="1">
          <mxGeometry width="60" height="20" as="geometry">
            <mxRectangle width="60" height="20" as="alternateBounds" />
          </mxGeometry>
        </mxCell>
        <mxCell id="Wh_HlaEyEp3CIP046GLt-49" value="UserID" style="shape=partialRectangle;connectable=0;fillColor=none;top=0;left=0;bottom=0;right=0;align=left;spacingLeft=6;overflow=hidden;html=1;whiteSpace=wrap;fontStyle=1;labelBackgroundColor=none;strokeColor=#909090;fontColor=#1A1A1A;" parent="Wh_HlaEyEp3CIP046GLt-47" vertex="1">
          <mxGeometry x="60" width="120" height="20" as="geometry">
            <mxRectangle width="120" height="20" as="alternateBounds" />
          </mxGeometry>
        </mxCell>
        <mxCell id="Wh_HlaEyEp3CIP046GLt-50" value="" style="shape=tableRow;horizontal=0;startSize=0;swimlaneHead=0;swimlaneBody=0;fillColor=none;collapsible=0;dropTarget=0;points=[[0,0.5],[1,0.5]];portConstraint=eastwest;top=0;left=0;right=0;bottom=0;html=1;labelBackgroundColor=none;strokeColor=#909090;fontColor=#1A1A1A;" parent="Wh_HlaEyEp3CIP046GLt-40" vertex="1">
          <mxGeometry y="80" width="180" height="30" as="geometry" />
        </mxCell>
        <mxCell id="Wh_HlaEyEp3CIP046GLt-51" value="" style="shape=partialRectangle;connectable=0;fillColor=none;top=0;left=0;bottom=0;right=0;editable=1;overflow=hidden;html=1;whiteSpace=wrap;labelBackgroundColor=none;strokeColor=#909090;fontColor=#1A1A1A;" parent="Wh_HlaEyEp3CIP046GLt-50" vertex="1">
          <mxGeometry width="60" height="30" as="geometry">
            <mxRectangle width="60" height="30" as="alternateBounds" />
          </mxGeometry>
        </mxCell>
        <mxCell id="Wh_HlaEyEp3CIP046GLt-52" value="CardType" style="shape=partialRectangle;connectable=0;fillColor=none;top=0;left=0;bottom=0;right=0;align=left;spacingLeft=6;overflow=hidden;html=1;whiteSpace=wrap;fontStyle=1;labelBackgroundColor=none;strokeColor=#909090;fontColor=#1A1A1A;" parent="Wh_HlaEyEp3CIP046GLt-50" vertex="1">
          <mxGeometry x="60" width="120" height="30" as="geometry">
            <mxRectangle width="120" height="30" as="alternateBounds" />
          </mxGeometry>
        </mxCell>
        <mxCell id="Wh_HlaEyEp3CIP046GLt-105" value="" style="shape=tableRow;horizontal=0;startSize=0;swimlaneHead=0;swimlaneBody=0;fillColor=none;collapsible=0;dropTarget=0;points=[[0,0.5],[1,0.5]];portConstraint=eastwest;top=0;left=0;right=0;bottom=0;html=1;fontStyle=1;labelBackgroundColor=none;strokeColor=#909090;fontColor=#1A1A1A;" parent="Wh_HlaEyEp3CIP046GLt-40" vertex="1">
          <mxGeometry y="110" width="180" height="30" as="geometry" />
        </mxCell>
        <mxCell id="Wh_HlaEyEp3CIP046GLt-106" value="" style="shape=partialRectangle;connectable=0;fillColor=none;top=0;left=0;bottom=0;right=0;editable=1;overflow=hidden;html=1;whiteSpace=wrap;labelBackgroundColor=none;strokeColor=#909090;fontColor=#1A1A1A;" parent="Wh_HlaEyEp3CIP046GLt-105" vertex="1">
          <mxGeometry width="60" height="30" as="geometry">
            <mxRectangle width="60" height="30" as="alternateBounds" />
          </mxGeometry>
        </mxCell>
        <mxCell id="Wh_HlaEyEp3CIP046GLt-107" value="CV V / Card No" style="shape=partialRectangle;connectable=0;fillColor=none;top=0;left=0;bottom=0;right=0;align=left;spacingLeft=6;overflow=hidden;html=1;whiteSpace=wrap;fontStyle=1;labelBackgroundColor=none;strokeColor=#909090;fontColor=#1A1A1A;" parent="Wh_HlaEyEp3CIP046GLt-105" vertex="1">
          <mxGeometry x="60" width="120" height="30" as="geometry">
            <mxRectangle width="120" height="30" as="alternateBounds" />
          </mxGeometry>
        </mxCell>
        <mxCell id="Wh_HlaEyEp3CIP046GLt-108" value="" style="shape=tableRow;horizontal=0;startSize=0;swimlaneHead=0;swimlaneBody=0;fillColor=none;collapsible=0;dropTarget=0;points=[[0,0.5],[1,0.5]];portConstraint=eastwest;top=0;left=0;right=0;bottom=0;html=1;labelBackgroundColor=none;strokeColor=#909090;fontColor=#1A1A1A;" parent="Wh_HlaEyEp3CIP046GLt-40" vertex="1">
          <mxGeometry y="140" width="180" height="30" as="geometry" />
        </mxCell>
        <mxCell id="Wh_HlaEyEp3CIP046GLt-109" value="" style="shape=partialRectangle;connectable=0;fillColor=none;top=0;left=0;bottom=0;right=0;editable=1;overflow=hidden;html=1;whiteSpace=wrap;labelBackgroundColor=none;strokeColor=#909090;fontColor=#1A1A1A;" parent="Wh_HlaEyEp3CIP046GLt-108" vertex="1">
          <mxGeometry width="60" height="30" as="geometry">
            <mxRectangle width="60" height="30" as="alternateBounds" />
          </mxGeometry>
        </mxCell>
        <mxCell id="Wh_HlaEyEp3CIP046GLt-110" value="ExpiryDate&amp;nbsp;" style="shape=partialRectangle;connectable=0;fillColor=none;top=0;left=0;bottom=0;right=0;align=left;spacingLeft=6;overflow=hidden;html=1;whiteSpace=wrap;fontStyle=1;labelBackgroundColor=none;strokeColor=#909090;fontColor=#1A1A1A;" parent="Wh_HlaEyEp3CIP046GLt-108" vertex="1">
          <mxGeometry x="60" width="120" height="30" as="geometry">
            <mxRectangle width="120" height="30" as="alternateBounds" />
          </mxGeometry>
        </mxCell>
        <mxCell id="gWuvPEMKt8DnDTGnqQOU-102" value="" style="shape=tableRow;horizontal=0;startSize=0;swimlaneHead=0;swimlaneBody=0;fillColor=none;collapsible=0;dropTarget=0;points=[[0,0.5],[1,0.5]];portConstraint=eastwest;top=0;left=0;right=0;bottom=0;html=1;labelBackgroundColor=none;strokeColor=#909090;fontColor=#1A1A1A;" vertex="1" parent="Wh_HlaEyEp3CIP046GLt-40">
          <mxGeometry y="170" width="180" height="30" as="geometry" />
        </mxCell>
        <mxCell id="gWuvPEMKt8DnDTGnqQOU-103" value="" style="shape=partialRectangle;connectable=0;fillColor=none;top=0;left=0;bottom=0;right=0;editable=1;overflow=hidden;html=1;whiteSpace=wrap;labelBackgroundColor=none;strokeColor=#909090;fontColor=#1A1A1A;" vertex="1" parent="gWuvPEMKt8DnDTGnqQOU-102">
          <mxGeometry width="60" height="30" as="geometry">
            <mxRectangle width="60" height="30" as="alternateBounds" />
          </mxGeometry>
        </mxCell>
        <mxCell id="gWuvPEMKt8DnDTGnqQOU-104" value="Card Holder" style="shape=partialRectangle;connectable=0;fillColor=none;top=0;left=0;bottom=0;right=0;align=left;spacingLeft=6;overflow=hidden;html=1;whiteSpace=wrap;fontStyle=1;labelBackgroundColor=none;strokeColor=#909090;fontColor=#1A1A1A;" vertex="1" parent="gWuvPEMKt8DnDTGnqQOU-102">
          <mxGeometry x="60" width="120" height="30" as="geometry">
            <mxRectangle width="120" height="30" as="alternateBounds" />
          </mxGeometry>
        </mxCell>
        <mxCell id="gWuvPEMKt8DnDTGnqQOU-143" value="" style="shape=tableRow;horizontal=0;startSize=0;swimlaneHead=0;swimlaneBody=0;fillColor=none;collapsible=0;dropTarget=0;points=[[0,0.5],[1,0.5]];portConstraint=eastwest;top=0;left=0;right=0;bottom=0;html=1;labelBackgroundColor=none;strokeColor=#909090;fontColor=#1A1A1A;" vertex="1" parent="Wh_HlaEyEp3CIP046GLt-40">
          <mxGeometry y="200" width="180" height="30" as="geometry" />
        </mxCell>
        <mxCell id="gWuvPEMKt8DnDTGnqQOU-144" value="" style="shape=partialRectangle;connectable=0;fillColor=none;top=0;left=0;bottom=0;right=0;editable=1;overflow=hidden;html=1;whiteSpace=wrap;labelBackgroundColor=none;strokeColor=#909090;fontColor=#1A1A1A;" vertex="1" parent="gWuvPEMKt8DnDTGnqQOU-143">
          <mxGeometry width="60" height="30" as="geometry">
            <mxRectangle width="60" height="30" as="alternateBounds" />
          </mxGeometry>
        </mxCell>
        <mxCell id="gWuvPEMKt8DnDTGnqQOU-145" value="IS Blocked" style="shape=partialRectangle;connectable=0;fillColor=none;top=0;left=0;bottom=0;right=0;align=left;spacingLeft=6;overflow=hidden;html=1;whiteSpace=wrap;fontStyle=1;labelBackgroundColor=none;strokeColor=#909090;fontColor=#1A1A1A;" vertex="1" parent="gWuvPEMKt8DnDTGnqQOU-143">
          <mxGeometry x="60" width="120" height="30" as="geometry">
            <mxRectangle width="120" height="30" as="alternateBounds" />
          </mxGeometry>
        </mxCell>
        <mxCell id="Wh_HlaEyEp3CIP046GLt-79" value="Transaction" style="shape=table;startSize=30;container=1;collapsible=1;childLayout=tableLayout;fixedRows=1;rowLines=0;fontStyle=1;align=center;resizeLast=1;html=1;whiteSpace=wrap;fillColor=#F5AB50;strokeColor=#909090;labelBackgroundColor=none;fontColor=#1A1A1A;" parent="1" vertex="1">
          <mxGeometry x="680" y="600" width="180" height="240" as="geometry">
            <mxRectangle x="680" y="600" width="100" height="30" as="alternateBounds" />
          </mxGeometry>
        </mxCell>
        <mxCell id="Wh_HlaEyEp3CIP046GLt-80" value="" style="shape=tableRow;horizontal=0;startSize=0;swimlaneHead=0;swimlaneBody=0;fillColor=none;collapsible=0;dropTarget=0;points=[[0,0.5],[1,0.5]];portConstraint=eastwest;top=0;left=0;right=0;bottom=0;html=1;labelBackgroundColor=none;strokeColor=#909090;fontColor=#1A1A1A;" parent="Wh_HlaEyEp3CIP046GLt-79" vertex="1">
          <mxGeometry y="30" width="180" height="30" as="geometry" />
        </mxCell>
        <mxCell id="Wh_HlaEyEp3CIP046GLt-81" value="PK" style="shape=partialRectangle;connectable=0;fillColor=none;top=0;left=0;bottom=0;right=0;fontStyle=1;overflow=hidden;html=1;whiteSpace=wrap;labelBackgroundColor=none;strokeColor=#909090;fontColor=#1A1A1A;" parent="Wh_HlaEyEp3CIP046GLt-80" vertex="1">
          <mxGeometry width="60" height="30" as="geometry">
            <mxRectangle width="60" height="30" as="alternateBounds" />
          </mxGeometry>
        </mxCell>
        <mxCell id="Wh_HlaEyEp3CIP046GLt-82" value="TransactionID" style="shape=partialRectangle;connectable=0;fillColor=none;top=0;left=0;bottom=0;right=0;align=left;spacingLeft=6;fontStyle=5;overflow=hidden;html=1;whiteSpace=wrap;labelBackgroundColor=none;strokeColor=#909090;fontColor=#1A1A1A;" parent="Wh_HlaEyEp3CIP046GLt-80" vertex="1">
          <mxGeometry x="60" width="120" height="30" as="geometry">
            <mxRectangle width="120" height="30" as="alternateBounds" />
          </mxGeometry>
        </mxCell>
        <mxCell id="Wh_HlaEyEp3CIP046GLt-83" value="" style="shape=tableRow;horizontal=0;startSize=0;swimlaneHead=0;swimlaneBody=0;fillColor=none;collapsible=0;dropTarget=0;points=[[0,0.5],[1,0.5]];portConstraint=eastwest;top=0;left=0;right=0;bottom=1;html=1;labelBackgroundColor=none;strokeColor=#909090;fontColor=#1A1A1A;" parent="Wh_HlaEyEp3CIP046GLt-79" vertex="1">
          <mxGeometry y="60" width="180" height="30" as="geometry" />
        </mxCell>
        <mxCell id="Wh_HlaEyEp3CIP046GLt-84" value="FK" style="shape=partialRectangle;connectable=0;fillColor=none;top=0;left=0;bottom=0;right=0;fontStyle=1;overflow=hidden;html=1;whiteSpace=wrap;labelBackgroundColor=none;strokeColor=#909090;fontColor=#1A1A1A;" parent="Wh_HlaEyEp3CIP046GLt-83" vertex="1">
          <mxGeometry width="60" height="30" as="geometry">
            <mxRectangle width="60" height="30" as="alternateBounds" />
          </mxGeometry>
        </mxCell>
        <mxCell id="Wh_HlaEyEp3CIP046GLt-85" value="FromAccountNo" style="shape=partialRectangle;connectable=0;fillColor=none;top=0;left=0;bottom=0;right=0;align=left;spacingLeft=6;fontStyle=5;overflow=hidden;html=1;whiteSpace=wrap;labelBackgroundColor=none;strokeColor=#909090;fontColor=#1A1A1A;" parent="Wh_HlaEyEp3CIP046GLt-83" vertex="1">
          <mxGeometry x="60" width="120" height="30" as="geometry">
            <mxRectangle width="120" height="30" as="alternateBounds" />
          </mxGeometry>
        </mxCell>
        <mxCell id="Wh_HlaEyEp3CIP046GLt-86" value="" style="shape=tableRow;horizontal=0;startSize=0;swimlaneHead=0;swimlaneBody=0;fillColor=none;collapsible=0;dropTarget=0;points=[[0,0.5],[1,0.5]];portConstraint=eastwest;top=0;left=0;right=0;bottom=0;html=1;labelBackgroundColor=none;strokeColor=#909090;fontColor=#1A1A1A;" parent="Wh_HlaEyEp3CIP046GLt-79" vertex="1">
          <mxGeometry y="90" width="180" height="30" as="geometry" />
        </mxCell>
        <mxCell id="Wh_HlaEyEp3CIP046GLt-87" value="" style="shape=partialRectangle;connectable=0;fillColor=none;top=0;left=0;bottom=0;right=0;editable=1;overflow=hidden;html=1;whiteSpace=wrap;labelBackgroundColor=none;strokeColor=#909090;fontColor=#1A1A1A;" parent="Wh_HlaEyEp3CIP046GLt-86" vertex="1">
          <mxGeometry width="60" height="30" as="geometry">
            <mxRectangle width="60" height="30" as="alternateBounds" />
          </mxGeometry>
        </mxCell>
        <mxCell id="Wh_HlaEyEp3CIP046GLt-88" value="Amount" style="shape=partialRectangle;connectable=0;fillColor=none;top=0;left=0;bottom=0;right=0;align=left;spacingLeft=6;overflow=hidden;html=1;whiteSpace=wrap;fontStyle=1;labelBackgroundColor=none;strokeColor=#909090;fontColor=#1A1A1A;" parent="Wh_HlaEyEp3CIP046GLt-86" vertex="1">
          <mxGeometry x="60" width="120" height="30" as="geometry">
            <mxRectangle width="120" height="30" as="alternateBounds" />
          </mxGeometry>
        </mxCell>
        <mxCell id="Wh_HlaEyEp3CIP046GLt-89" value="" style="shape=tableRow;horizontal=0;startSize=0;swimlaneHead=0;swimlaneBody=0;fillColor=none;collapsible=0;dropTarget=0;points=[[0,0.5],[1,0.5]];portConstraint=eastwest;top=0;left=0;right=0;bottom=0;html=1;labelBackgroundColor=none;strokeColor=#909090;fontColor=#1A1A1A;" parent="Wh_HlaEyEp3CIP046GLt-79" vertex="1">
          <mxGeometry y="120" width="180" height="30" as="geometry" />
        </mxCell>
        <mxCell id="Wh_HlaEyEp3CIP046GLt-90" value="" style="shape=partialRectangle;connectable=0;fillColor=none;top=0;left=0;bottom=0;right=0;editable=1;overflow=hidden;html=1;whiteSpace=wrap;labelBackgroundColor=none;strokeColor=#909090;fontColor=#1A1A1A;" parent="Wh_HlaEyEp3CIP046GLt-89" vertex="1">
          <mxGeometry width="60" height="30" as="geometry">
            <mxRectangle width="60" height="30" as="alternateBounds" />
          </mxGeometry>
        </mxCell>
        <mxCell id="Wh_HlaEyEp3CIP046GLt-91" value="TransactionDate" style="shape=partialRectangle;connectable=0;fillColor=none;top=0;left=0;bottom=0;right=0;align=left;spacingLeft=6;overflow=hidden;html=1;whiteSpace=wrap;fontStyle=1;labelBackgroundColor=none;strokeColor=#909090;fontColor=#1A1A1A;" parent="Wh_HlaEyEp3CIP046GLt-89" vertex="1">
          <mxGeometry x="60" width="120" height="30" as="geometry">
            <mxRectangle width="120" height="30" as="alternateBounds" />
          </mxGeometry>
        </mxCell>
        <mxCell id="0xgxg0GI6OddkqKoszQR-1" value="" style="shape=tableRow;horizontal=0;startSize=0;swimlaneHead=0;swimlaneBody=0;fillColor=none;collapsible=0;dropTarget=0;points=[[0,0.5],[1,0.5]];portConstraint=eastwest;top=0;left=0;right=0;bottom=1;html=1;labelBackgroundColor=none;strokeColor=#909090;fontColor=#1A1A1A;" parent="Wh_HlaEyEp3CIP046GLt-79" vertex="1">
          <mxGeometry y="150" width="180" height="30" as="geometry" />
        </mxCell>
        <mxCell id="0xgxg0GI6OddkqKoszQR-2" value="FK" style="shape=partialRectangle;connectable=0;fillColor=none;top=0;left=0;bottom=0;right=0;fontStyle=1;overflow=hidden;html=1;whiteSpace=wrap;labelBackgroundColor=none;strokeColor=#909090;fontColor=#1A1A1A;" parent="0xgxg0GI6OddkqKoszQR-1" vertex="1">
          <mxGeometry width="60" height="30" as="geometry">
            <mxRectangle width="60" height="30" as="alternateBounds" />
          </mxGeometry>
        </mxCell>
        <mxCell id="0xgxg0GI6OddkqKoszQR-3" value="ToAccountNO" style="shape=partialRectangle;connectable=0;fillColor=none;top=0;left=0;bottom=0;right=0;align=left;spacingLeft=6;fontStyle=5;overflow=hidden;html=1;whiteSpace=wrap;labelBackgroundColor=none;strokeColor=#909090;fontColor=#1A1A1A;" parent="0xgxg0GI6OddkqKoszQR-1" vertex="1">
          <mxGeometry x="60" width="120" height="30" as="geometry">
            <mxRectangle width="120" height="30" as="alternateBounds" />
          </mxGeometry>
        </mxCell>
        <mxCell id="0xgxg0GI6OddkqKoszQR-20" value="" style="shape=tableRow;horizontal=0;startSize=0;swimlaneHead=0;swimlaneBody=0;fillColor=none;collapsible=0;dropTarget=0;points=[[0,0.5],[1,0.5]];portConstraint=eastwest;top=0;left=0;right=0;bottom=0;html=1;labelBackgroundColor=none;strokeColor=#909090;fontColor=#1A1A1A;" parent="Wh_HlaEyEp3CIP046GLt-79" vertex="1">
          <mxGeometry y="180" width="180" height="30" as="geometry" />
        </mxCell>
        <mxCell id="0xgxg0GI6OddkqKoszQR-21" value="" style="shape=partialRectangle;connectable=0;fillColor=none;top=0;left=0;bottom=0;right=0;editable=1;overflow=hidden;html=1;whiteSpace=wrap;labelBackgroundColor=none;strokeColor=#909090;fontColor=#1A1A1A;" parent="0xgxg0GI6OddkqKoszQR-20" vertex="1">
          <mxGeometry width="60" height="30" as="geometry">
            <mxRectangle width="60" height="30" as="alternateBounds" />
          </mxGeometry>
        </mxCell>
        <mxCell id="0xgxg0GI6OddkqKoszQR-22" value="TransactionType" style="shape=partialRectangle;connectable=0;fillColor=none;top=0;left=0;bottom=0;right=0;align=left;spacingLeft=6;overflow=hidden;html=1;whiteSpace=wrap;fontStyle=1;labelBackgroundColor=none;strokeColor=#909090;fontColor=#1A1A1A;" parent="0xgxg0GI6OddkqKoszQR-20" vertex="1">
          <mxGeometry x="60" width="120" height="30" as="geometry">
            <mxRectangle width="120" height="30" as="alternateBounds" />
          </mxGeometry>
        </mxCell>
        <mxCell id="gWuvPEMKt8DnDTGnqQOU-23" value="" style="shape=tableRow;horizontal=0;startSize=0;swimlaneHead=0;swimlaneBody=0;fillColor=none;collapsible=0;dropTarget=0;points=[[0,0.5],[1,0.5]];portConstraint=eastwest;top=0;left=0;right=0;bottom=0;html=1;labelBackgroundColor=none;strokeColor=#909090;fontColor=#1A1A1A;" vertex="1" parent="Wh_HlaEyEp3CIP046GLt-79">
          <mxGeometry y="210" width="180" height="30" as="geometry" />
        </mxCell>
        <mxCell id="gWuvPEMKt8DnDTGnqQOU-24" value="" style="shape=partialRectangle;connectable=0;fillColor=none;top=0;left=0;bottom=0;right=0;editable=1;overflow=hidden;html=1;whiteSpace=wrap;labelBackgroundColor=none;strokeColor=#909090;fontColor=#1A1A1A;" vertex="1" parent="gWuvPEMKt8DnDTGnqQOU-23">
          <mxGeometry width="60" height="30" as="geometry">
            <mxRectangle width="60" height="30" as="alternateBounds" />
          </mxGeometry>
        </mxCell>
        <mxCell id="gWuvPEMKt8DnDTGnqQOU-25" value="Text Description&amp;nbsp;" style="shape=partialRectangle;connectable=0;fillColor=none;top=0;left=0;bottom=0;right=0;align=left;spacingLeft=6;overflow=hidden;html=1;whiteSpace=wrap;fontStyle=1;labelBackgroundColor=none;strokeColor=#909090;fontColor=#1A1A1A;" vertex="1" parent="gWuvPEMKt8DnDTGnqQOU-23">
          <mxGeometry x="60" width="120" height="30" as="geometry">
            <mxRectangle width="120" height="30" as="alternateBounds" />
          </mxGeometry>
        </mxCell>
        <mxCell id="0xgxg0GI6OddkqKoszQR-24" value="" style="edgeStyle=entityRelationEdgeStyle;fontSize=12;html=1;endArrow=ERoneToMany;startArrow=ERmandOne;rounded=0;exitX=1;exitY=0;exitDx=0;exitDy=0;exitPerimeter=0;labelBackgroundColor=none;strokeColor=#182E3E;fontColor=default;strokeWidth=3;" parent="1" source="Wh_HlaEyEp3CIP046GLt-98" target="Wh_HlaEyEp3CIP046GLt-14" edge="1">
          <mxGeometry width="100" height="100" relative="1" as="geometry">
            <mxPoint x="530" y="480" as="sourcePoint" />
            <mxPoint x="530" y="470" as="targetPoint" />
            <Array as="points">
              <mxPoint x="480" y="550" />
              <mxPoint x="480" y="560" />
              <mxPoint x="480" y="550" />
              <mxPoint x="480" y="520" />
            </Array>
          </mxGeometry>
        </mxCell>
        <mxCell id="0xgxg0GI6OddkqKoszQR-28" value="" style="edgeStyle=entityRelationEdgeStyle;fontSize=12;html=1;endArrow=ERzeroToMany;startArrow=ERzeroToOne;rounded=0;entryX=0.002;entryY=0.984;entryDx=0;entryDy=0;entryPerimeter=0;labelBackgroundColor=none;strokeColor=#182E3E;fontColor=default;strokeWidth=3;" parent="1" target="Wh_HlaEyEp3CIP046GLt-86" edge="1">
          <mxGeometry width="100" height="100" relative="1" as="geometry">
            <mxPoint x="520" y="718" as="sourcePoint" />
            <mxPoint x="670" y="718" as="targetPoint" />
            <Array as="points">
              <mxPoint x="529.82" y="767.27" />
              <mxPoint x="559.82" y="777.27" />
            </Array>
          </mxGeometry>
        </mxCell>
        <mxCell id="0xgxg0GI6OddkqKoszQR-31" value="" style="edgeStyle=entityRelationEdgeStyle;fontSize=12;html=1;endArrow=ERzeroToMany;startArrow=ERmandOne;rounded=0;entryX=0;entryY=0.5;entryDx=0;entryDy=0;labelBackgroundColor=none;strokeColor=#182E3E;fontColor=default;strokeWidth=3;" parent="1" edge="1">
          <mxGeometry width="100" height="100" relative="1" as="geometry">
            <mxPoint x="520" y="390" as="sourcePoint" />
            <mxPoint x="690" y="330" as="targetPoint" />
          </mxGeometry>
        </mxCell>
        <mxCell id="0xgxg0GI6OddkqKoszQR-32" value="" style="edgeStyle=entityRelationEdgeStyle;fontSize=12;html=1;endArrow=ERzeroToMany;startArrow=ERmandOne;rounded=0;exitX=0.431;exitY=1.094;exitDx=0;exitDy=0;exitPerimeter=0;entryX=0.001;entryY=0.191;entryDx=0;entryDy=0;entryPerimeter=0;labelBackgroundColor=none;strokeColor=#182E3E;fontColor=default;strokeWidth=3;" parent="1" target="0xgxg0GI6OddkqKoszQR-1" edge="1">
          <mxGeometry width="100" height="100" relative="1" as="geometry">
            <mxPoint x="520.0000000000003" y="756.5500000000002" as="sourcePoint" />
            <mxPoint x="883.6200000000002" y="782" as="targetPoint" />
            <Array as="points">
              <mxPoint x="702.42" y="791.73" />
            </Array>
          </mxGeometry>
        </mxCell>
        <mxCell id="0xgxg0GI6OddkqKoszQR-33" value="OWNS" style="text;html=1;align=center;verticalAlign=middle;whiteSpace=wrap;rounded=0;labelBackgroundColor=none;fontColor=#1A1A1A;fontStyle=1;fontSize=13;fontFamily=Helvetica;" parent="1" vertex="1">
          <mxGeometry x="530" y="525" width="100" height="50" as="geometry" />
        </mxCell>
        <mxCell id="0xgxg0GI6OddkqKoszQR-34" value="HAS" style="text;html=1;align=center;verticalAlign=middle;whiteSpace=wrap;rounded=0;labelBackgroundColor=none;fontColor=#1A1A1A;fontStyle=1;fontSize=13;" parent="1" vertex="1">
          <mxGeometry x="230" y="330" width="60" height="30" as="geometry" />
        </mxCell>
        <mxCell id="0xgxg0GI6OddkqKoszQR-38" value="INITITAES" style="text;html=1;align=center;verticalAlign=middle;whiteSpace=wrap;rounded=0;labelBackgroundColor=none;fontColor=#1A1A1A;fontStyle=1;fontSize=13;" parent="1" vertex="1">
          <mxGeometry x="590" y="770" width="60" height="30" as="geometry" />
        </mxCell>
        <mxCell id="0xgxg0GI6OddkqKoszQR-39" value="RECEIVES" style="text;html=1;align=center;verticalAlign=middle;whiteSpace=wrap;rounded=0;labelBackgroundColor=none;fontColor=#1A1A1A;fontStyle=1;fontSize=13;" parent="1" vertex="1">
          <mxGeometry x="580" y="690" width="60" height="30" as="geometry" />
        </mxCell>
        <mxCell id="0xgxg0GI6OddkqKoszQR-41" value="PROVIDES" style="text;html=1;align=center;verticalAlign=middle;whiteSpace=wrap;rounded=0;labelBackgroundColor=none;fontColor=#1A1A1A;fontStyle=1;fontSize=13;" parent="1" vertex="1">
          <mxGeometry x="560" y="330" width="60" height="30" as="geometry" />
        </mxCell>
        <mxCell id="0xgxg0GI6OddkqKoszQR-43" value="" style="edgeStyle=entityRelationEdgeStyle;fontSize=12;html=1;endArrow=ERzeroToMany;startArrow=ERmandOne;rounded=0;entryX=1;entryY=0.5;entryDx=0;entryDy=0;exitX=0.014;exitY=0.081;exitDx=0;exitDy=0;exitPerimeter=0;labelBackgroundColor=none;strokeColor=#182E3E;fontColor=default;strokeWidth=3;endFill=0;" parent="1" source="Wh_HlaEyEp3CIP046GLt-8" target="Wh_HlaEyEp3CIP046GLt-50" edge="1">
          <mxGeometry width="100" height="100" relative="1" as="geometry">
            <mxPoint x="290" y="370" as="sourcePoint" />
            <mxPoint x="420" y="470" as="targetPoint" />
          </mxGeometry>
        </mxCell>
      </root>
    </mxGraphModel>
  </diagram>
</mxfile>
